<svg width="60" height="61" viewBox="0 0 60 61" fill="none" xmlns="http://www.w3.org/2000/svg">
<g clip-path="url(#clip0_1791_10110)">
<path fill-rule="evenodd" clip-rule="evenodd" d="M32.0479 60.5815H3.31154C1.48209 60.5815 0 59.0985 0 57.2698V3.89306C0 2.06386 1.48232 0.581543 3.31154 0.581543H56.6887C58.5174 0.581543 60 2.06386 60 3.89306V57.2698C60 59.0988 58.5172 60.5815 56.6887 60.5815H41.3991V37.3462H49.1982L50.3659 28.291H41.3991V22.5099C41.3991 19.8882 42.1271 18.1016 45.8866 18.1016L50.6816 18.0995V10.0004C49.8524 9.89006 47.006 9.64351 43.6944 9.64351C36.781 9.64351 32.0479 13.8635 32.0479 21.6131V28.291H24.2289V37.3462H32.0479V60.5815Z" fill="#DADEEA"/>
</g>
<defs>
<clipPath id="clip0_1791_10110">
<rect width="60" height="60" fill="white" transform="translate(0 0.581543)"/>
</clipPath>
</defs>
</svg>
