<svg width="83" height="61" viewBox="0 0 83 61" fill="none" xmlns="http://www.w3.org/2000/svg">
<g clip-path="url(#clip0_1791_10105)">
<path fill-rule="evenodd" clip-rule="evenodd" d="M33.2319 41.358L33.2293 18.0136L55.5198 29.7261L33.2319 41.358ZM82.175 13.9684C82.175 13.9684 81.368 8.24331 78.8956 5.72219C75.758 2.41176 72.2415 2.39615 70.6301 2.20402C59.0853 1.36278 41.768 1.36279 41.768 1.36279H41.732C41.732 1.36279 24.4147 1.36278 12.8699 2.20402C11.2559 2.39615 7.74196 2.41176 4.60181 5.72219C2.12938 8.24331 1.32499 13.9684 1.32499 13.9684C1.32499 13.9684 0.5 20.6931 0.5 27.4152V33.7193C0.5 40.444 1.32499 47.1662 1.32499 47.1662C1.32499 47.1662 2.12938 52.8912 4.60181 55.4124C7.74196 58.7228 11.8644 58.6189 13.7 58.9643C20.3 59.603 41.75 59.8003 41.75 59.8003C41.75 59.8003 59.0853 59.7743 70.6301 58.9331C72.2415 58.7384 75.758 58.7228 78.8956 55.4124C81.368 52.8912 82.175 47.1662 82.175 47.1662C82.175 47.1662 83 40.444 83 33.7193V27.4152C83 20.6931 82.175 13.9684 82.175 13.9684Z" fill="#DADEEA"/>
</g>
<defs>
<clipPath id="clip0_1791_10105">
<rect width="82.5" height="59.5833" fill="white" transform="translate(0.5 0.790039)"/>
</clipPath>
</defs>
</svg>
