<svg width="60" height="61" viewBox="0 0 60 61" fill="none" xmlns="http://www.w3.org/2000/svg">
<g clip-path="url(#clip0_1791_10115)">
<rect y="0.581543" width="60" height="60" rx="6" fill="#DADEEA"/>
<rect x="7.5" y="8.08154" width="45" height="45" fill="#010409"/>
<path d="M29.9987 20.5958C24.4703 20.5958 20.0134 25.0958 20.0134 30.5815C20.0134 36.0673 24.5132 40.5673 29.9987 40.5673C35.4841 40.5673 39.9839 36.0673 39.9839 30.5815C39.9839 25.0958 35.4841 20.5958 29.9987 20.5958ZM59.9973 30.5815C59.9973 26.4244 59.9973 22.353 59.783 18.1958C59.5688 13.3958 58.4545 9.11011 54.9404 5.63869C51.4263 2.1244 47.1836 1.01011 42.3838 0.795828C38.2269 0.581543 34.1556 0.581543 29.9987 0.581543C25.8417 0.581543 21.7705 0.581543 17.6135 0.795828C12.8137 1.01011 8.52819 2.1244 5.05692 5.63869C1.54279 9.15297 0.428552 13.3958 0.214276 18.1958C-2.07543e-07 22.353 0 26.4244 0 30.5815C0 34.7387 -2.07543e-07 38.8101 0.214276 42.9673C0.428552 47.7673 1.54279 52.053 5.05692 55.5244C8.57105 59.0387 12.8137 60.153 17.6135 60.3673C21.7705 60.5815 25.8417 60.5815 29.9987 60.5815C34.1556 60.5815 38.2269 60.5815 42.3838 60.3673C47.1836 60.153 51.4691 59.0387 54.9404 55.5244C58.4545 52.0101 59.5688 47.7673 59.783 42.9673C60.0402 38.853 59.9973 34.7387 59.9973 30.5815ZM29.9987 45.9673C21.4705 45.9673 14.6136 39.1101 14.6136 30.5815C14.6136 22.053 21.4705 15.1958 29.9987 15.1958C38.5269 15.1958 45.3837 22.053 45.3837 30.5815C45.3837 39.1101 38.5269 45.9673 29.9987 45.9673ZM46.0265 18.153C44.0552 18.153 42.4267 16.5673 42.4267 14.553C42.4267 12.5387 44.0123 10.953 46.0265 10.953C48.0407 10.953 49.6264 12.5387 49.6264 14.553C49.6372 15.0224 49.5515 15.4891 49.3746 15.924C49.1977 16.359 48.9333 16.753 48.5978 17.0815C48.2693 17.417 47.8753 17.6814 47.4404 17.8583C47.0054 18.0353 46.5388 18.121 46.0694 18.1101L46.0265 18.153Z" fill="#DADEEA"/>
</g>
<defs>
<clipPath id="clip0_1791_10115">
<rect y="0.581543" width="60" height="60" rx="6" fill="white"/>
</clipPath>
</defs>
</svg>
