<svg width="60" height="61" viewBox="0 0 60 61" fill="none" xmlns="http://www.w3.org/2000/svg">
<g clip-path="url(#clip0_1791_10118)">
<path d="M51.125 51.7064H42.235V37.7815C42.235 34.4615 42.175 30.1865 37.61 30.1865C32.98 30.1865 32.27 33.8065 32.27 37.5365V51.7064H23.38V23.0715H31.915V26.9865H32.035C33.775 24.0165 37.015 22.2365 40.455 22.3615C49.465 22.3615 51.13 28.2865 51.13 36.0015L51.125 51.7014V51.7064ZM13.35 19.1565C11.9844 19.15 10.6765 18.6049 9.71034 17.6397C8.74422 16.6746 8.19789 15.3672 8.19 14.0016C8.19 11.1716 10.52 8.84159 13.35 8.84159C16.18 8.84159 18.505 11.1716 18.51 14.0016C18.51 16.8316 16.18 19.1565 13.35 19.1565ZM17.795 51.7064H8.895V23.0715H17.795V51.7064ZM55.55 0.581617H4.425C3.26575 0.574884 2.15069 1.02591 1.32212 1.83669C0.493545 2.64747 0.0184233 3.75249 0 4.9116V56.2514C0.0184233 57.4105 0.493545 58.5155 1.32212 59.3263C2.15069 60.1371 3.26575 60.5881 4.425 60.5814H55.555C56.7169 60.5908 57.8356 60.1413 58.6679 59.3305C59.5003 58.5197 59.979 57.4132 60 56.2514V4.9066C59.979 3.74574 59.4999 2.64025 58.6673 1.83106C57.8347 1.02186 56.716 0.574552 55.555 0.586617L55.55 0.581617Z" fill="#DADEEA"/>
</g>
<defs>
<clipPath id="clip0_1791_10118">
<rect width="60" height="60" fill="white" transform="translate(0 0.581543)"/>
</clipPath>
</defs>
</svg>
